<svg xmlns="http://www.w3.org/2000/svg" width="508.583" height="88.159" viewBox="0 0 508.583 88.159">
  <g id="FoxBase_Logo" transform="translate(-17.852 -8.344)">
    <path id="Path_1" data-name="Path 1" d="M112.286,47.6q0-9.342-2.6-13.9a9.477,9.477,0,0,0-16.1-.161q-2.605,4.382-2.7,13.35V59.167q0,9.062,2.653,13.353t8.169,4.294a8.7,8.7,0,0,0,7.935-4.192c1.731-2.813,2.613-7.14,2.647-13.029v-12Zm13.689,11.571q0,13.907-6.428,21.585T101.7,88.428q-11.372,0-17.873-7.606-6.508-7.626-6.6-21.329v-11.8q0-14.22,6.454-22.224,6.449-7.98,17.918-7.985,11.286,0,17.787,7.839t6.582,22.046v11.8h0Z" fill="#1c1c1c"/>
    <path id="Path_2" data-name="Path 2" d="M170.179,42.139l9.1-23.711h15.638L179.046,52.677l16.241,34.806H179.46l-9.284-24.135-9.238,24.135H145.111l16.246-34.806L145.434,18.428h15.641Z" fill="#1c1c1c"/>
    <path id="Path_3" data-name="Path 3" d="M305.626,55.179V80.041h11.605a9.627,9.627,0,0,0,7.658-3.251q2.84-3.253,2.842-9.134,0-12.463-10.312-12.478H305.626Zm0-7.3h10.91a9.094,9.094,0,0,0,7.127-3.041,11.688,11.688,0,0,0,2.713-8.078q0-5.7-2.461-8.294c-1.633-1.726-4.146-2.589-7.518-2.589H305.625v22Zm-8.49,39.6V18.428H316.4q9.225,0,13.908,4.6,4.658,4.589,4.66,13.792a15.455,15.455,0,0,1-2.367,8.542,15.968,15.968,0,0,1-6.4,5.74,12.864,12.864,0,0,1,7.355,5.833,19.886,19.886,0,0,1,2.715,10.626q0,9.3-4.988,14.606t-14.225,5.312H297.136Z" fill="#1c1c1c"/>
    <path id="Path_4" data-name="Path 4" d="M372.253,61.963h18.422l-9.232-31.4Zm20.605,7.449H370.026L364.77,87.484h-8.721l21.766-69.056h7.291l21.815,69.056h-8.727Z" fill="#1c1c1c"/>
    <path id="Path_5" data-name="Path 5" d="M457.995,70.032c0-3.452-.906-6.087-2.742-7.927s-5.115-3.621-9.881-5.353a42.539,42.539,0,0,1-10.934-5.483,19.166,19.166,0,0,1-5.666-6.542A18.239,18.239,0,0,1,426.9,36.3a18.283,18.283,0,0,1,5.35-13.521q5.367-5.306,14.049-5.3a20.668,20.668,0,0,1,10.582,2.708,18.227,18.227,0,0,1,7.15,7.542,22.671,22.671,0,0,1,2.508,10.618H458q0-6.406-3.01-9.906c-2.021-2.35-4.91-3.519-8.688-3.519-3.432,0-6.1.991-7.98,2.947s-2.836,4.723-2.836,8.277a9.713,9.713,0,0,0,3.07,7.312q3.059,2.948,9.461,5.28,9.981,3.358,14.272,8.3t4.3,12.909q0,8.388-5.344,13.443-5.326,5.046-14.527,5.044a22.966,22.966,0,0,1-10.889-2.63,19.63,19.63,0,0,1-7.842-7.4,20.857,20.857,0,0,1-2.857-10.933h8.549q0,6.406,3.5,9.959t9.541,3.554q5.622,0,8.453-2.939a11.133,11.133,0,0,0,2.822-8.019Z" fill="#1c1c1c"/>
    <path id="Path_6" data-name="Path 6" d="M522.481,55.563h-23.9V80.041h27.854v7.443H490.079V18.428h35.893v7.449H498.581V48.118h23.9Z" fill="#1c1c1c"/>
    <path id="Path_7" data-name="Path 7" d="M273.858,8.344,245.074,37.725,245.08,96.5l28.741-29.38Z" fill="#005799"/>
    <path id="Path_8" data-name="Path 8" d="M245.08,96.5l-.006-58.781L216.3,8.358l.025,58.771Z" fill="#0087cf"/>
    <path id="Path_9" data-name="Path 9" d="M52.715,58.371H31.5V86.539H17.852V17.483H55.271V29.1H31.5v17.7H52.715Z" fill="#1c1c1c"/>
  </g>
</svg>
